<svg width="200" height="200" viewBox="0 0 200 200" xmlns="http://www.w3.org/2000/svg">
  <defs>
    <filter id="glow">
      <feGaussianBlur stdDeviation="3" result="blur"></feGaussianBlur>
      <feMerge><feMergeNode in="blur"></feMergeNode><feMergeNode in="SourceGraphic"></feMergeNode></feMerge>
    </filter>
    <filter id="starGlow">
      <feGaussianBlur stdDeviation="4" result="blur"></feGaussianBlur>
      <feMerge><feMergeNode in="blur"></feMergeNode><feMergeNode in="SourceGraphic"></feMergeNode></feMerge>
    </filter>
    <radialGradient id="bgGlow" cx="50%" cy="48%" r="45%">
      <stop offset="0%" stop-color="#c8a030" stop-opacity="0.08"></stop>
      <stop offset="100%" stop-color="#0a0a14" stop-opacity="0"></stop>
    </radialGradient>
  </defs>

  
  <rect width="200" height="200" rx="44" fill="#0a0a14"></rect>
  <rect width="200" height="200" rx="44" fill="url(#bgGlow)"></rect>

  
  <circle cx="100" cy="100" r="76" fill="none" stroke="#c8a030" stroke-width="0.8" stroke-dasharray="3 6" opacity="0.4"></circle>
  <circle cx="100" cy="100" r="70" fill="none" stroke="#1e1e34" stroke-width="1"></circle>

  
  <line x1="100" y1="44" x2="66" y2="120" stroke="#c8a030" stroke-width="1.6" opacity="0.7"></line>
  <line x1="100" y1="44" x2="134" y2="120" stroke="#c8a030" stroke-width="1.6" opacity="0.7"></line>
  <line x1="66" y1="120" x2="80" y2="96" stroke="#c8a030" stroke-width="1.6" opacity="0.7"></line>
  <line x1="134" y1="120" x2="120" y2="96" stroke="#c8a030" stroke-width="1.6" opacity="0.7"></line>
  <line x1="80" y1="96" x2="120" y2="96" stroke="#c8a030" stroke-width="1.6" opacity="0.7"></line>
  <line x1="80" y1="96" x2="100" y2="148" stroke="#c8a030" stroke-width="1.6" opacity="0.7"></line>
  <line x1="120" y1="96" x2="100" y2="148" stroke="#c8a030" stroke-width="1.6" opacity="0.7"></line>

  
  <circle cx="66" cy="120" r="5" fill="#c8a030" filter="url(#glow)"></circle>
  <circle cx="134" cy="120" r="5" fill="#c8a030" filter="url(#glow)"></circle>
  <circle cx="80" cy="96" r="4" fill="#c8a030" filter="url(#glow)"></circle>
  <circle cx="120" cy="96" r="4" fill="#c8a030" filter="url(#glow)"></circle>
  <circle cx="100" cy="148" r="5" fill="#c8a030" filter="url(#glow)"></circle>

  
  <path d="M96 42 L100 32 L104 42 L114 47 L104 52 L100 62 L96 52 L86 47 Z" fill="#e8d090" filter="url(#starGlow)"></path>
</svg>